solid OpenSCAD_Model
  facet normal 1 -0 0
    outer loop
      vertex 35 37 45
      vertex 35 40 40
      vertex 35 40 45
    endloop
  endfacet
  facet normal 1 0 0
    outer loop
      vertex 35 40 40
      vertex 35 37 45
      vertex 35 37 40
    endloop
  endfacet
  facet normal 1 -0 0
    outer loop
      vertex 35 0 45
      vertex 35 37 40
      vertex 35 37 45
    endloop
  endfacet
  facet normal 1 0 0
    outer loop
      vertex 35 37 40
      vertex 35 0 45
      vertex 35 0 40
    endloop
  endfacet
  facet normal 0 0 1
    outer loop
      vertex 23 28 45
      vertex 35 37 45
      vertex 35 40 45
    endloop
  endfacet
  facet normal 0 0 1
    outer loop
      vertex 35 37 45
      vertex 23 28 45
      vertex 35 0 45
    endloop
  endfacet
  facet normal 0 0 1
    outer loop
      vertex 35 40 45
      vertex 12 28 45
      vertex 23 28 45
    endloop
  endfacet
  facet normal -0 0 1
    outer loop
      vertex 0 37 45
      vertex 12 28 45
      vertex 0 40 45
    endloop
  endfacet
  facet normal -0 0 1
    outer loop
      vertex 0 40 45
      vertex 12 28 45
      vertex 35 40 45
    endloop
  endfacet
  facet normal -0 0 1
    outer loop
      vertex 23 7 45
      vertex 35 0 45
      vertex 23 28 45
    endloop
  endfacet
  facet normal -0 0 1
    outer loop
      vertex 12 7 45
      vertex 35 0 45
      vertex 23 7 45
    endloop
  endfacet
  facet normal 0 0 1
    outer loop
      vertex 0 0 45
      vertex 12 28 45
      vertex 0 37 45
    endloop
  endfacet
  facet normal 0 0 1
    outer loop
      vertex 12 7 45
      vertex 0 0 45
      vertex 35 0 45
    endloop
  endfacet
  facet normal 0 0 1
    outer loop
      vertex 12 28 45
      vertex 0 0 45
      vertex 12 7 45
    endloop
  endfacet
  facet normal 0 0 -1
    outer loop
      vertex 0 37 40
      vertex 35 37 40
      vertex 35 0 40
    endloop
  endfacet
  facet normal 0 0 -1
    outer loop
      vertex 0 37 40
      vertex 35 0 40
      vertex 0 0 40
    endloop
  endfacet
  facet normal 0 0 -1
    outer loop
      vertex 35 37 40
      vertex 0 37 40
      vertex 35 40 40
    endloop
  endfacet
  facet normal -0 0 -1
    outer loop
      vertex 35 40 40
      vertex 0 37 40
      vertex 0 40 40
    endloop
  endfacet
  facet normal -1 0 0
    outer loop
      vertex 0 37 40
      vertex 0 40 45
      vertex 0 40 40
    endloop
  endfacet
  facet normal -1 -0 0
    outer loop
      vertex 0 40 45
      vertex 0 37 40
      vertex 0 37 45
    endloop
  endfacet
  facet normal -1 0 0
    outer loop
      vertex 0 0 40
      vertex 0 37 45
      vertex 0 37 40
    endloop
  endfacet
  facet normal -1 -0 0
    outer loop
      vertex 0 37 45
      vertex 0 0 40
      vertex 0 0 45
    endloop
  endfacet
  facet normal 0 1 -0
    outer loop
      vertex 35 40 40
      vertex 0 40 45
      vertex 35 40 45
    endloop
  endfacet
  facet normal 0 1 0
    outer loop
      vertex 0 40 45
      vertex 35 40 40
      vertex 0 40 40
    endloop
  endfacet
  facet normal 0 -1 0
    outer loop
      vertex 0 0 40
      vertex 35 0 45
      vertex 0 0 45
    endloop
  endfacet
  facet normal 0 -1 -0
    outer loop
      vertex 35 0 45
      vertex 0 0 40
      vertex 35 0 40
    endloop
  endfacet
  facet normal -0.951065 0.308992 0
    outer loop
      vertex 30 -3 0
      vertex 30.5729 -1.23664 70
      vertex 30.5729 -1.23664 0
    endloop
  endfacet
  facet normal -0.951065 0.308992 0
    outer loop
      vertex 30.5729 -1.23664 70
      vertex 30 -3 0
      vertex 30 -3 70
    endloop
  endfacet
  facet normal -0.587784 -0.809018 0
    outer loop
      vertex 30.5729 -4.76336 0
      vertex 32.0729 -5.85317 70
      vertex 30.5729 -4.76336 70
    endloop
  endfacet
  facet normal -0.587784 -0.809018 -0
    outer loop
      vertex 32.0729 -5.85317 70
      vertex 30.5729 -4.76336 0
      vertex 32.0729 -5.85317 0
    endloop
  endfacet
  facet normal 0.587784 0.809018 -0
    outer loop
      vertex 35.4271 -1.23664 0
      vertex 33.9271 -0.14683 70
      vertex 35.4271 -1.23664 70
    endloop
  endfacet
  facet normal 0.587784 0.809018 0
    outer loop
      vertex 33.9271 -0.14683 70
      vertex 35.4271 -1.23664 0
      vertex 33.9271 -0.14683 0
    endloop
  endfacet
  facet normal 0.951065 0.308992 0
    outer loop
      vertex 36 -3 70
      vertex 35.4271 -1.23664 0
      vertex 35.4271 -1.23664 70
    endloop
  endfacet
  facet normal 0.951065 0.308992 0
    outer loop
      vertex 35.4271 -1.23664 0
      vertex 36 -3 70
      vertex 36 -3 0
    endloop
  endfacet
  facet normal 0 1 -0
    outer loop
      vertex 33.9271 -0.14683 0
      vertex 32.0729 -0.14683 70
      vertex 33.9271 -0.14683 70
    endloop
  endfacet
  facet normal 0 1 0
    outer loop
      vertex 32.0729 -0.14683 70
      vertex 33.9271 -0.14683 0
      vertex 32.0729 -0.14683 0
    endloop
  endfacet
  facet normal 0.587784 -0.809018 0
    outer loop
      vertex 33.9271 -5.85317 0
      vertex 35.4271 -4.76336 70
      vertex 33.9271 -5.85317 70
    endloop
  endfacet
  facet normal 0.587784 -0.809018 0
    outer loop
      vertex 35.4271 -4.76336 70
      vertex 33.9271 -5.85317 0
      vertex 35.4271 -4.76336 0
    endloop
  endfacet
  facet normal 0 -1 0
    outer loop
      vertex 32.0729 -5.85317 0
      vertex 33.9271 -5.85317 70
      vertex 32.0729 -5.85317 70
    endloop
  endfacet
  facet normal 0 -1 -0
    outer loop
      vertex 33.9271 -5.85317 70
      vertex 32.0729 -5.85317 0
      vertex 33.9271 -5.85317 0
    endloop
  endfacet
  facet normal -0.587784 0.809018 0
    outer loop
      vertex 32.0729 -0.14683 0
      vertex 30.5729 -1.23664 70
      vertex 32.0729 -0.14683 70
    endloop
  endfacet
  facet normal -0.587784 0.809018 0
    outer loop
      vertex 30.5729 -1.23664 70
      vertex 32.0729 -0.14683 0
      vertex 30.5729 -1.23664 0
    endloop
  endfacet
  facet normal 0.951065 -0.308992 0
    outer loop
      vertex 35.4271 -4.76336 70
      vertex 36 -3 0
      vertex 36 -3 70
    endloop
  endfacet
  facet normal 0.951065 -0.308992 0
    outer loop
      vertex 36 -3 0
      vertex 35.4271 -4.76336 70
      vertex 35.4271 -4.76336 0
    endloop
  endfacet
  facet normal -0.951065 -0.308992 0
    outer loop
      vertex 30.5729 -4.76336 0
      vertex 30 -3 70
      vertex 30 -3 0
    endloop
  endfacet
  facet normal -0.951065 -0.308992 0
    outer loop
      vertex 30 -3 70
      vertex 30.5729 -4.76336 0
      vertex 30.5729 -4.76336 70
    endloop
  endfacet
  facet normal 0 0 -1
    outer loop
      vertex 35.4271 -4.76336 0
      vertex 35.4271 -1.23664 0
      vertex 36 -3 0
    endloop
  endfacet
  facet normal 0 0 -1
    outer loop
      vertex 33.9271 -5.85317 0
      vertex 35.4271 -1.23664 0
      vertex 35.4271 -4.76336 0
    endloop
  endfacet
  facet normal 0 0 -1
    outer loop
      vertex 33.9271 -5.85317 0
      vertex 33.9271 -0.14683 0
      vertex 35.4271 -1.23664 0
    endloop
  endfacet
  facet normal 0 0 -1
    outer loop
      vertex 32.0729 -5.85317 0
      vertex 33.9271 -0.14683 0
      vertex 33.9271 -5.85317 0
    endloop
  endfacet
  facet normal 0 0 -1
    outer loop
      vertex 32.0729 -5.85317 0
      vertex 32.0729 -0.14683 0
      vertex 33.9271 -0.14683 0
    endloop
  endfacet
  facet normal 0 0 -1
    outer loop
      vertex 30.5729 -4.76336 0
      vertex 32.0729 -0.14683 0
      vertex 32.0729 -5.85317 0
    endloop
  endfacet
  facet normal 0 0 -1
    outer loop
      vertex 30.5729 -4.76336 0
      vertex 30.5729 -1.23664 0
      vertex 32.0729 -0.14683 0
    endloop
  endfacet
  facet normal 0 -0 -1
    outer loop
      vertex 30.5729 -1.23664 0
      vertex 30.5729 -4.76336 0
      vertex 30 -3 0
    endloop
  endfacet
  facet normal 0 0 1
    outer loop
      vertex 35.4271 -1.23664 70
      vertex 35.4271 -4.76336 70
      vertex 36 -3 70
    endloop
  endfacet
  facet normal 0 0 1
    outer loop
      vertex 33.9271 -0.14683 70
      vertex 35.4271 -4.76336 70
      vertex 35.4271 -1.23664 70
    endloop
  endfacet
  facet normal 0 0 1
    outer loop
      vertex 33.9271 -0.14683 70
      vertex 33.9271 -5.85317 70
      vertex 35.4271 -4.76336 70
    endloop
  endfacet
  facet normal -0 0 1
    outer loop
      vertex 32.0729 -0.14683 70
      vertex 33.9271 -5.85317 70
      vertex 33.9271 -0.14683 70
    endloop
  endfacet
  facet normal 0 0 1
    outer loop
      vertex 32.0729 -0.14683 70
      vertex 32.0729 -5.85317 70
      vertex 33.9271 -5.85317 70
    endloop
  endfacet
  facet normal -0 0 1
    outer loop
      vertex 30.5729 -1.23664 70
      vertex 32.0729 -5.85317 70
      vertex 32.0729 -0.14683 70
    endloop
  endfacet
  facet normal 0 0 1
    outer loop
      vertex 30.5729 -1.23664 70
      vertex 30.5729 -4.76336 70
      vertex 32.0729 -5.85317 70
    endloop
  endfacet
  facet normal 0 -0 1
    outer loop
      vertex 30.5729 -4.76336 70
      vertex 30.5729 -1.23664 70
      vertex 30 -3 70
    endloop
  endfacet
  facet normal -0.951057 -0.309016 0
    outer loop
      vertex -0.427051 -4.76336 0
      vertex -1 -3 70
      vertex -1 -3 0
    endloop
  endfacet
  facet normal -0.951057 -0.309016 0
    outer loop
      vertex -1 -3 70
      vertex -0.427051 -4.76336 0
      vertex -0.427051 -4.76336 70
    endloop
  endfacet
  facet normal 0.587784 0.809018 -0
    outer loop
      vertex 4.42705 -1.23664 0
      vertex 2.92705 -0.14683 70
      vertex 4.42705 -1.23664 70
    endloop
  endfacet
  facet normal 0.587784 0.809018 0
    outer loop
      vertex 2.92705 -0.14683 70
      vertex 4.42705 -1.23664 0
      vertex 2.92705 -0.14683 0
    endloop
  endfacet
  facet normal 0.951057 0.309017 0
    outer loop
      vertex 5 -3 70
      vertex 4.42705 -1.23664 0
      vertex 4.42705 -1.23664 70
    endloop
  endfacet
  facet normal 0.951057 0.309017 0
    outer loop
      vertex 4.42705 -1.23664 0
      vertex 5 -3 70
      vertex 5 -3 0
    endloop
  endfacet
  facet normal 0 1 -0
    outer loop
      vertex 2.92705 -0.14683 0
      vertex 1.07295 -0.14683 70
      vertex 2.92705 -0.14683 70
    endloop
  endfacet
  facet normal 0 1 0
    outer loop
      vertex 1.07295 -0.14683 70
      vertex 2.92705 -0.14683 0
      vertex 1.07295 -0.14683 0
    endloop
  endfacet
  facet normal 0 0 1
    outer loop
      vertex 4.42705 -1.23664 70
      vertex 4.42705 -4.76336 70
      vertex 5 -3 70
    endloop
  endfacet
  facet normal 0 0 1
    outer loop
      vertex 2.92705 -0.14683 70
      vertex 4.42705 -4.76336 70
      vertex 4.42705 -1.23664 70
    endloop
  endfacet
  facet normal 0 0 1
    outer loop
      vertex 2.92705 -0.14683 70
      vertex 2.92705 -5.85317 70
      vertex 4.42705 -4.76336 70
    endloop
  endfacet
  facet normal -0 0 1
    outer loop
      vertex 1.07295 -0.14683 70
      vertex 2.92705 -5.85317 70
      vertex 2.92705 -0.14683 70
    endloop
  endfacet
  facet normal 0 0 1
    outer loop
      vertex 1.07295 -0.14683 70
      vertex 1.07295 -5.85317 70
      vertex 2.92705 -5.85317 70
    endloop
  endfacet
  facet normal -0 0 1
    outer loop
      vertex -0.427051 -1.23664 70
      vertex 1.07295 -5.85317 70
      vertex 1.07295 -0.14683 70
    endloop
  endfacet
  facet normal 0 0 1
    outer loop
      vertex -0.427051 -1.23664 70
      vertex -0.427051 -4.76336 70
      vertex 1.07295 -5.85317 70
    endloop
  endfacet
  facet normal 0 -0 1
    outer loop
      vertex -0.427051 -4.76336 70
      vertex -0.427051 -1.23664 70
      vertex -1 -3 70
    endloop
  endfacet
  facet normal -0.587784 -0.809018 0
    outer loop
      vertex -0.427051 -4.76336 0
      vertex 1.07295 -5.85317 70
      vertex -0.427051 -4.76336 70
    endloop
  endfacet
  facet normal -0.587784 -0.809018 -0
    outer loop
      vertex 1.07295 -5.85317 70
      vertex -0.427051 -4.76336 0
      vertex 1.07295 -5.85317 0
    endloop
  endfacet
  facet normal 0.951057 -0.309017 0
    outer loop
      vertex 4.42705 -4.76336 70
      vertex 5 -3 0
      vertex 5 -3 70
    endloop
  endfacet
  facet normal 0.951057 -0.309017 0
    outer loop
      vertex 5 -3 0
      vertex 4.42705 -4.76336 70
      vertex 4.42705 -4.76336 0
    endloop
  endfacet
  facet normal -0.587784 0.809018 0
    outer loop
      vertex 1.07295 -0.14683 0
      vertex -0.427051 -1.23664 70
      vertex 1.07295 -0.14683 70
    endloop
  endfacet
  facet normal -0.587784 0.809018 0
    outer loop
      vertex -0.427051 -1.23664 70
      vertex 1.07295 -0.14683 0
      vertex -0.427051 -1.23664 0
    endloop
  endfacet
  facet normal 0 -1 0
    outer loop
      vertex 1.07295 -5.85317 0
      vertex 2.92705 -5.85317 70
      vertex 1.07295 -5.85317 70
    endloop
  endfacet
  facet normal 0 -1 -0
    outer loop
      vertex 2.92705 -5.85317 70
      vertex 1.07295 -5.85317 0
      vertex 2.92705 -5.85317 0
    endloop
  endfacet
  facet normal 0.587784 -0.809018 0
    outer loop
      vertex 2.92705 -5.85317 0
      vertex 4.42705 -4.76336 70
      vertex 2.92705 -5.85317 70
    endloop
  endfacet
  facet normal 0.587784 -0.809018 0
    outer loop
      vertex 4.42705 -4.76336 70
      vertex 2.92705 -5.85317 0
      vertex 4.42705 -4.76336 0
    endloop
  endfacet
  facet normal -0.951057 0.309016 0
    outer loop
      vertex -1 -3 0
      vertex -0.427051 -1.23664 70
      vertex -0.427051 -1.23664 0
    endloop
  endfacet
  facet normal -0.951057 0.309016 0
    outer loop
      vertex -0.427051 -1.23664 70
      vertex -1 -3 0
      vertex -1 -3 70
    endloop
  endfacet
  facet normal 0 0 -1
    outer loop
      vertex 4.42705 -4.76336 0
      vertex 4.42705 -1.23664 0
      vertex 5 -3 0
    endloop
  endfacet
  facet normal 0 0 -1
    outer loop
      vertex 2.92705 -5.85317 0
      vertex 4.42705 -1.23664 0
      vertex 4.42705 -4.76336 0
    endloop
  endfacet
  facet normal 0 0 -1
    outer loop
      vertex 2.92705 -5.85317 0
      vertex 2.92705 -0.14683 0
      vertex 4.42705 -1.23664 0
    endloop
  endfacet
  facet normal 0 0 -1
    outer loop
      vertex 1.07295 -5.85317 0
      vertex 2.92705 -0.14683 0
      vertex 2.92705 -5.85317 0
    endloop
  endfacet
  facet normal 0 0 -1
    outer loop
      vertex 1.07295 -5.85317 0
      vertex 1.07295 -0.14683 0
      vertex 2.92705 -0.14683 0
    endloop
  endfacet
  facet normal 0 0 -1
    outer loop
      vertex -0.427051 -4.76336 0
      vertex 1.07295 -0.14683 0
      vertex 1.07295 -5.85317 0
    endloop
  endfacet
  facet normal 0 0 -1
    outer loop
      vertex -0.427051 -4.76336 0
      vertex -0.427051 -1.23664 0
      vertex 1.07295 -0.14683 0
    endloop
  endfacet
  facet normal 0 -0 -1
    outer loop
      vertex -0.427051 -1.23664 0
      vertex -0.427051 -4.76336 0
      vertex -1 -3 0
    endloop
  endfacet
  facet normal 0 0 1
    outer loop
      vertex -0.572948 38.7634 100
      vertex -0.572948 35.2366 100
      vertex 0 37 100
    endloop
  endfacet
  facet normal 0 0 1
    outer loop
      vertex -2.07295 39.8532 100
      vertex -0.572948 35.2366 100
      vertex -0.572948 38.7634 100
    endloop
  endfacet
  facet normal 0 0 1
    outer loop
      vertex -2.07295 39.8532 100
      vertex -2.07295 34.1468 100
      vertex -0.572948 35.2366 100
    endloop
  endfacet
  facet normal -0 0 1
    outer loop
      vertex -3.92705 39.8532 100
      vertex -2.07295 34.1468 100
      vertex -2.07295 39.8532 100
    endloop
  endfacet
  facet normal 0 0 1
    outer loop
      vertex -3.92705 39.8532 100
      vertex -3.92705 34.1468 100
      vertex -2.07295 34.1468 100
    endloop
  endfacet
  facet normal -0 0 1
    outer loop
      vertex -5.42705 38.7634 100
      vertex -3.92705 34.1468 100
      vertex -3.92705 39.8532 100
    endloop
  endfacet
  facet normal 0 0 1
    outer loop
      vertex -5.42705 38.7634 100
      vertex -5.42705 35.2366 100
      vertex -3.92705 34.1468 100
    endloop
  endfacet
  facet normal 0 -0 1
    outer loop
      vertex -5.42705 35.2366 100
      vertex -5.42705 38.7634 100
      vertex -6 37 100
    endloop
  endfacet
  facet normal -0.951059 -0.30901 0
    outer loop
      vertex -5.42705 35.2366 0
      vertex -6 37 100
      vertex -6 37 0
    endloop
  endfacet
  facet normal -0.951059 -0.30901 0
    outer loop
      vertex -6 37 100
      vertex -5.42705 35.2366 0
      vertex -5.42705 35.2366 100
    endloop
  endfacet
  facet normal 0.58778 0.809021 -0
    outer loop
      vertex -0.572948 38.7634 0
      vertex -2.07295 39.8532 100
      vertex -0.572948 38.7634 100
    endloop
  endfacet
  facet normal 0.58778 0.809021 0
    outer loop
      vertex -2.07295 39.8532 100
      vertex -0.572948 38.7634 0
      vertex -2.07295 39.8532 0
    endloop
  endfacet
  facet normal 0.951059 0.309009 -0
    outer loop
      vertex 0 37 45
      vertex -0.572948 38.7634 100
      vertex 0 37 100
    endloop
  endfacet
  facet normal 0.951059 0.309009 0
    outer loop
      vertex -0.572948 38.7634 100
      vertex 0 37 45
      vertex -0.572948 38.7634 0
    endloop
  endfacet
  facet normal 0.951059 0.309009 -0
    outer loop
      vertex 0 37 40
      vertex -0.572948 38.7634 0
      vertex 0 37 45
    endloop
  endfacet
  facet normal 0.951059 0.309009 0
    outer loop
      vertex -0.572948 38.7634 0
      vertex 0 37 40
      vertex 0 37 0
    endloop
  endfacet
  facet normal 0 1 -0
    outer loop
      vertex -2.07295 39.8532 0
      vertex -3.92705 39.8532 100
      vertex -2.07295 39.8532 100
    endloop
  endfacet
  facet normal 0 1 0
    outer loop
      vertex -3.92705 39.8532 100
      vertex -2.07295 39.8532 0
      vertex -3.92705 39.8532 0
    endloop
  endfacet
  facet normal 0.951059 -0.309009 0
    outer loop
      vertex -0.572948 35.2366 100
      vertex 0 37 45
      vertex 0 37 100
    endloop
  endfacet
  facet normal 0.951059 -0.309009 0
    outer loop
      vertex -0.572948 35.2366 0
      vertex 0 37 45
      vertex -0.572948 35.2366 100
    endloop
  endfacet
  facet normal 0.951059 -0.309009 0
    outer loop
      vertex 0 37 45
      vertex -0.572948 35.2366 0
      vertex 0 37 40
    endloop
  endfacet
  facet normal 0.951059 -0.309009 0
    outer loop
      vertex 0 37 40
      vertex -0.572948 35.2366 0
      vertex 0 37 0
    endloop
  endfacet
  facet normal -0.58778 0.809021 0
    outer loop
      vertex -3.92705 39.8532 0
      vertex -5.42705 38.7634 100
      vertex -3.92705 39.8532 100
    endloop
  endfacet
  facet normal -0.58778 0.809021 0
    outer loop
      vertex -5.42705 38.7634 100
      vertex -3.92705 39.8532 0
      vertex -5.42705 38.7634 0
    endloop
  endfacet
  facet normal -0.58778 -0.809021 0
    outer loop
      vertex -5.42705 35.2366 0
      vertex -3.92705 34.1468 100
      vertex -5.42705 35.2366 100
    endloop
  endfacet
  facet normal -0.58778 -0.809021 -0
    outer loop
      vertex -3.92705 34.1468 100
      vertex -5.42705 35.2366 0
      vertex -3.92705 34.1468 0
    endloop
  endfacet
  facet normal 0 -1 0
    outer loop
      vertex -3.92705 34.1468 0
      vertex -2.07295 34.1468 100
      vertex -3.92705 34.1468 100
    endloop
  endfacet
  facet normal 0 -1 -0
    outer loop
      vertex -2.07295 34.1468 100
      vertex -3.92705 34.1468 0
      vertex -2.07295 34.1468 0
    endloop
  endfacet
  facet normal 0.58778 -0.809021 0
    outer loop
      vertex -2.07295 34.1468 0
      vertex -0.572948 35.2366 100
      vertex -2.07295 34.1468 100
    endloop
  endfacet
  facet normal 0.58778 -0.809021 0
    outer loop
      vertex -0.572948 35.2366 100
      vertex -2.07295 34.1468 0
      vertex -0.572948 35.2366 0
    endloop
  endfacet
  facet normal -0.951059 0.30901 0
    outer loop
      vertex -6 37 0
      vertex -5.42705 38.7634 100
      vertex -5.42705 38.7634 0
    endloop
  endfacet
  facet normal -0.951059 0.30901 0
    outer loop
      vertex -5.42705 38.7634 100
      vertex -6 37 0
      vertex -6 37 100
    endloop
  endfacet
  facet normal 0 0 -1
    outer loop
      vertex -0.572948 35.2366 0
      vertex -0.572948 38.7634 0
      vertex 0 37 0
    endloop
  endfacet
  facet normal 0 0 -1
    outer loop
      vertex -2.07295 34.1468 0
      vertex -0.572948 38.7634 0
      vertex -0.572948 35.2366 0
    endloop
  endfacet
  facet normal 0 0 -1
    outer loop
      vertex -2.07295 34.1468 0
      vertex -2.07295 39.8532 0
      vertex -0.572948 38.7634 0
    endloop
  endfacet
  facet normal 0 0 -1
    outer loop
      vertex -3.92705 34.1468 0
      vertex -2.07295 39.8532 0
      vertex -2.07295 34.1468 0
    endloop
  endfacet
  facet normal 0 0 -1
    outer loop
      vertex -3.92705 34.1468 0
      vertex -3.92705 39.8532 0
      vertex -2.07295 39.8532 0
    endloop
  endfacet
  facet normal 0 0 -1
    outer loop
      vertex -5.42705 35.2366 0
      vertex -3.92705 39.8532 0
      vertex -3.92705 34.1468 0
    endloop
  endfacet
  facet normal 0 0 -1
    outer loop
      vertex -5.42705 35.2366 0
      vertex -5.42705 38.7634 0
      vertex -3.92705 39.8532 0
    endloop
  endfacet
  facet normal 0 -0 -1
    outer loop
      vertex -5.42705 38.7634 0
      vertex -5.42705 35.2366 0
      vertex -6 37 0
    endloop
  endfacet
  facet normal -0.951067 0.308986 0
    outer loop
      vertex 35 37 40
      vertex 35.5729 38.7634 0
      vertex 35 37 0
    endloop
  endfacet
  facet normal -0.951067 0.308986 0
    outer loop
      vertex 35 37 45
      vertex 35.5729 38.7634 0
      vertex 35 37 40
    endloop
  endfacet
  facet normal -0.951067 0.308986 0
    outer loop
      vertex 35.5729 38.7634 0
      vertex 35 37 45
      vertex 35.5729 38.7634 100
    endloop
  endfacet
  facet normal -0.951067 0.308986 0
    outer loop
      vertex 35.5729 38.7634 100
      vertex 35 37 45
      vertex 35 37 100
    endloop
  endfacet
  facet normal -0.58778 -0.809021 0
    outer loop
      vertex 35.5729 35.2366 0
      vertex 37.0729 34.1468 100
      vertex 35.5729 35.2366 100
    endloop
  endfacet
  facet normal -0.58778 -0.809021 -0
    outer loop
      vertex 37.0729 34.1468 100
      vertex 35.5729 35.2366 0
      vertex 37.0729 34.1468 0
    endloop
  endfacet
  facet normal 0.58778 0.809021 -0
    outer loop
      vertex 40.4271 38.7634 0
      vertex 38.9271 39.8532 100
      vertex 40.4271 38.7634 100
    endloop
  endfacet
  facet normal 0.58778 0.809021 0
    outer loop
      vertex 38.9271 39.8532 100
      vertex 40.4271 38.7634 0
      vertex 38.9271 39.8532 0
    endloop
  endfacet
  facet normal 0.951067 0.308986 0
    outer loop
      vertex 41 37 100
      vertex 40.4271 38.7634 0
      vertex 40.4271 38.7634 100
    endloop
  endfacet
  facet normal 0.951067 0.308986 0
    outer loop
      vertex 40.4271 38.7634 0
      vertex 41 37 100
      vertex 41 37 0
    endloop
  endfacet
  facet normal 0 1 -0
    outer loop
      vertex 38.9271 39.8532 0
      vertex 37.0729 39.8532 100
      vertex 38.9271 39.8532 100
    endloop
  endfacet
  facet normal 0 1 0
    outer loop
      vertex 37.0729 39.8532 100
      vertex 38.9271 39.8532 0
      vertex 37.0729 39.8532 0
    endloop
  endfacet
  facet normal 0.58778 -0.809021 0
    outer loop
      vertex 38.9271 34.1468 0
      vertex 40.4271 35.2366 100
      vertex 38.9271 34.1468 100
    endloop
  endfacet
  facet normal 0.58778 -0.809021 0
    outer loop
      vertex 40.4271 35.2366 100
      vertex 38.9271 34.1468 0
      vertex 40.4271 35.2366 0
    endloop
  endfacet
  facet normal 0 -1 0
    outer loop
      vertex 37.0729 34.1468 0
      vertex 38.9271 34.1468 100
      vertex 37.0729 34.1468 100
    endloop
  endfacet
  facet normal 0 -1 -0
    outer loop
      vertex 38.9271 34.1468 100
      vertex 37.0729 34.1468 0
      vertex 38.9271 34.1468 0
    endloop
  endfacet
  facet normal -0.58778 0.809021 0
    outer loop
      vertex 37.0729 39.8532 0
      vertex 35.5729 38.7634 100
      vertex 37.0729 39.8532 100
    endloop
  endfacet
  facet normal -0.58778 0.809021 0
    outer loop
      vertex 35.5729 38.7634 100
      vertex 37.0729 39.8532 0
      vertex 35.5729 38.7634 0
    endloop
  endfacet
  facet normal 0.951067 -0.308986 0
    outer loop
      vertex 40.4271 35.2366 100
      vertex 41 37 0
      vertex 41 37 100
    endloop
  endfacet
  facet normal 0.951067 -0.308986 0
    outer loop
      vertex 41 37 0
      vertex 40.4271 35.2366 100
      vertex 40.4271 35.2366 0
    endloop
  endfacet
  facet normal -0.951067 -0.308986 0
    outer loop
      vertex 35.5729 35.2366 0
      vertex 35 37 40
      vertex 35 37 0
    endloop
  endfacet
  facet normal -0.951067 -0.308986 0
    outer loop
      vertex 35 37 40
      vertex 35.5729 35.2366 0
      vertex 35 37 45
    endloop
  endfacet
  facet normal -0.951067 -0.308986 -0
    outer loop
      vertex 35.5729 35.2366 100
      vertex 35 37 45
      vertex 35.5729 35.2366 0
    endloop
  endfacet
  facet normal -0.951067 -0.308986 0
    outer loop
      vertex 35 37 45
      vertex 35.5729 35.2366 100
      vertex 35 37 100
    endloop
  endfacet
  facet normal 0 0 -1
    outer loop
      vertex 40.4271 35.2366 0
      vertex 40.4271 38.7634 0
      vertex 41 37 0
    endloop
  endfacet
  facet normal 0 0 -1
    outer loop
      vertex 38.9271 34.1468 0
      vertex 40.4271 38.7634 0
      vertex 40.4271 35.2366 0
    endloop
  endfacet
  facet normal 0 0 -1
    outer loop
      vertex 38.9271 34.1468 0
      vertex 38.9271 39.8532 0
      vertex 40.4271 38.7634 0
    endloop
  endfacet
  facet normal 0 0 -1
    outer loop
      vertex 37.0729 34.1468 0
      vertex 38.9271 39.8532 0
      vertex 38.9271 34.1468 0
    endloop
  endfacet
  facet normal 0 0 -1
    outer loop
      vertex 37.0729 34.1468 0
      vertex 37.0729 39.8532 0
      vertex 38.9271 39.8532 0
    endloop
  endfacet
  facet normal 0 0 -1
    outer loop
      vertex 35.5729 35.2366 0
      vertex 37.0729 39.8532 0
      vertex 37.0729 34.1468 0
    endloop
  endfacet
  facet normal 0 0 -1
    outer loop
      vertex 35.5729 35.2366 0
      vertex 35.5729 38.7634 0
      vertex 37.0729 39.8532 0
    endloop
  endfacet
  facet normal 0 -0 -1
    outer loop
      vertex 35.5729 38.7634 0
      vertex 35.5729 35.2366 0
      vertex 35 37 0
    endloop
  endfacet
  facet normal 0 0 1
    outer loop
      vertex 40.4271 38.7634 100
      vertex 40.4271 35.2366 100
      vertex 41 37 100
    endloop
  endfacet
  facet normal 0 0 1
    outer loop
      vertex 38.9271 39.8532 100
      vertex 40.4271 35.2366 100
      vertex 40.4271 38.7634 100
    endloop
  endfacet
  facet normal 0 0 1
    outer loop
      vertex 38.9271 39.8532 100
      vertex 38.9271 34.1468 100
      vertex 40.4271 35.2366 100
    endloop
  endfacet
  facet normal -0 0 1
    outer loop
      vertex 37.0729 39.8532 100
      vertex 38.9271 34.1468 100
      vertex 38.9271 39.8532 100
    endloop
  endfacet
  facet normal 0 0 1
    outer loop
      vertex 37.0729 39.8532 100
      vertex 37.0729 34.1468 100
      vertex 38.9271 34.1468 100
    endloop
  endfacet
  facet normal -0 0 1
    outer loop
      vertex 35.5729 38.7634 100
      vertex 37.0729 34.1468 100
      vertex 37.0729 39.8532 100
    endloop
  endfacet
  facet normal 0 0 1
    outer loop
      vertex 35.5729 38.7634 100
      vertex 35.5729 35.2366 100
      vertex 37.0729 34.1468 100
    endloop
  endfacet
  facet normal 0 -0 1
    outer loop
      vertex 35.5729 35.2366 100
      vertex 35.5729 38.7634 100
      vertex 35 37 100
    endloop
  endfacet
  facet normal 1 -0 0
    outer loop
      vertex 23 7 56
      vertex 23 28 45
      vertex 23 28 56
    endloop
  endfacet
  facet normal 1 0 0
    outer loop
      vertex 23 28 45
      vertex 23 7 56
      vertex 23 7 45
    endloop
  endfacet
  facet normal -0 0 1
    outer loop
      vertex 12 28 56
      vertex 23 7 56
      vertex 23 28 56
    endloop
  endfacet
  facet normal 0 0 1
    outer loop
      vertex 23 7 56
      vertex 12 28 56
      vertex 12 7 56
    endloop
  endfacet
  facet normal -1 0 0
    outer loop
      vertex 12 7 45
      vertex 12 28 56
      vertex 12 28 45
    endloop
  endfacet
  facet normal -1 -0 0
    outer loop
      vertex 12 28 56
      vertex 12 7 45
      vertex 12 7 56
    endloop
  endfacet
  facet normal 0 1 -0
    outer loop
      vertex 23 28 45
      vertex 12 28 56
      vertex 23 28 56
    endloop
  endfacet
  facet normal 0 1 0
    outer loop
      vertex 12 28 56
      vertex 23 28 45
      vertex 12 28 45
    endloop
  endfacet
  facet normal 0 -1 0
    outer loop
      vertex 12 7 45
      vertex 23 7 56
      vertex 12 7 56
    endloop
  endfacet
  facet normal 0 -1 -0
    outer loop
      vertex 23 7 56
      vertex 12 7 45
      vertex 23 7 45
    endloop
  endfacet
endsolid OpenSCAD_Model
